<svg width="160" height="24" viewBox="0 0 160 24" fill="none" xmlns="http://www.w3.org/2000/svg">
<path d="M18.724 1.714C14.186 1.714 11.348 4 10.214 8.571C11.916 6.286 13.901 5.428 16.171 6.001C17.467 6.326 18.391 7.272 19.416 8.319C21.084 10.025 23.016 12 27.235 12C31.774 12 34.611 9.714 35.745 5.143C34.044 7.429 32.058 8.286 29.788 7.714C28.494 7.389 27.568 6.442 26.543 5.394C24.875 3.689 22.943 1.714 18.724 1.714ZM10.214 12C5.675 12 2.838 14.286 1.704 18.857C3.405 16.571 5.391 15.714 7.661 16.286C8.955 16.611 9.881 17.558 10.906 18.606C12.574 20.311 14.506 22.286 18.724 22.286C23.264 22.286 26.101 20 27.235 15.429C25.533 17.715 23.547 18.572 21.278 18C19.983 17.674 19.058 16.728 18.033 15.68C16.364 13.975 14.434 12 10.214 12Z" fill="#38BDF8"/>
<path d="M51.285 9.531V6.857H48.119V3.257L45.361 4.08V6.857H43.013V9.531H45.361V15.703C45.361 19.046 47.047 20.229 51.285 19.714V17.22C49.191 17.323 48.119 17.349 48.119 15.703V9.53H51.285V9.531ZM63.372 6.857V8.683C62.402 7.346 60.896 6.523 58.904 6.523C55.432 6.523 52.547 9.454 52.547 13.286C52.547 17.091 55.432 20.049 58.904 20.049C60.896 20.049 62.402 19.226 63.372 17.863V19.714H66.13V6.857H63.372ZM59.338 17.4C57.041 17.4 55.304 15.677 55.304 13.286C55.304 10.894 57.04 9.171 59.338 9.171C61.636 9.171 63.372 10.894 63.372 13.286C63.372 15.677 61.636 17.4 59.338 17.4ZM70.723 4.929C71.693 4.929 72.485 4.106 72.485 3.154C72.485 2.177 71.693 1.38 70.723 1.38C69.753 1.38 68.961 2.177 68.961 3.154C68.961 4.106 69.753 4.929 70.723 4.929ZM69.344 19.714H72.102V6.857H69.344V19.714ZM75.304 19.714H78.061V0.943H75.303L75.304 19.714ZM95.969 6.857L93.467 15.729L90.812 6.857H88.182L85.5 15.73L83.023 6.858H80.113L84.121 19.715H86.828L89.508 11.05L92.164 19.715H94.87L98.88 6.857H95.969ZM102.289 4.929C103.259 4.929 104.051 4.106 104.051 3.154C104.051 2.177 103.259 1.38 102.289 1.38C101.319 1.38 100.527 2.177 100.527 3.154C100.527 4.106 101.319 4.929 102.289 4.929ZM100.91 19.714H103.668V6.857H100.91V19.714ZM113.584 6.523C111.848 6.523 110.469 7.166 109.627 8.503V6.857H106.869V19.714H109.627V12.823C109.627 10.2 111.057 9.12 112.869 9.12C114.606 9.12 115.729 10.149 115.729 12.103V19.714H118.486V11.82C118.486 8.477 116.444 6.523 113.584 6.523ZM131.566 1.714V8.683C130.595 7.346 129.089 6.523 127.098 6.523C123.625 6.523 120.74 9.454 120.74 13.286C120.74 17.091 123.625 20.049 127.098 20.049C129.089 20.049 130.595 19.226 131.566 17.863V19.714H134.323V1.714H131.566ZM127.532 17.4C125.234 17.4 123.498 15.677 123.498 13.286C123.498 10.894 125.234 9.171 127.532 9.171C129.829 9.171 131.566 10.894 131.566 13.286C131.566 15.677 129.829 17.4 127.532 17.4Z" fill="black"/>
<path fill-rule="evenodd" clip-rule="evenodd" d="M145.532 3.429H154.043C154.945 3.429 155.811 3.789 156.45 4.433C157.088 5.076 157.447 5.948 157.447 6.857V15.429C157.447 16.338 157.088 17.21 156.45 17.853C156.135 18.1708 155.76 18.4231 155.347 18.5954C154.934 18.7677 154.491 18.8566 154.043 18.857H145.532C145.084 18.8568 144.641 18.7681 144.228 18.5957C143.815 18.4234 143.44 18.171 143.125 17.853C142.486 17.2083 142.127 16.337 142.128 15.429V6.857C142.128 5.947 142.486 5.076 143.125 4.433C143.44 4.11502 143.815 3.86259 144.228 3.69027C144.641 3.51795 145.084 3.42915 145.532 3.429ZM140.426 6.857C140.426 5.493 140.964 4.185 141.921 3.221C142.394 2.74402 142.956 2.36529 143.576 2.10665C144.196 1.84801 144.86 1.71456 145.532 1.714H154.043C155.397 1.714 156.696 2.256 157.653 3.221C158.612 4.18808 159.15 5.49507 159.149 6.857V15.429C159.15 16.7909 158.612 18.0979 157.653 19.065C157.18 19.5419 156.618 19.9204 155.999 20.1789C155.379 20.4374 154.714 20.5707 154.043 20.571H145.532C144.861 20.5706 144.196 20.4373 143.576 20.1788C142.956 19.9203 142.394 19.5418 141.921 19.065C140.963 18.0975 140.425 16.7907 140.426 15.429V6.857ZM151.333 13.108C151.333 14.92 149.974 16.024 148.14 16.024C146.317 16.024 144.958 14.92 144.958 13.108V7.458H146.591V12.978C146.591 13.793 147.02 14.405 148.14 14.405C149.26 14.405 149.689 13.793 149.689 12.977V7.457H151.333V13.109V13.108ZM153.053 15.856V7.457H154.697V15.857H153.053V15.856Z" fill="black"/>
</svg>
